<svg width="255" height="236" viewBox="0 0 255 236" fill="none" xmlns="http://www.w3.org/2000/svg">
<path opacity="0.24" d="M46.3624 52.5461C51.1004 44.4841 56.9328 36.8459 64.4359 31.5375C69.1916 28.1866 74.5569 25.7944 80.232 24.4945C93.6253 21.3173 108.215 23.8342 120.652 29.1625C138.236 36.6961 153.267 49.0914 170.31 57.7782C180.948 63.1956 192.328 67.1604 202.822 72.8567C213.315 78.553 223.14 86.3397 228.482 97.3534C230.495 101.565 231.839 106.064 232.463 110.687C233.287 116.662 233.118 122.73 231.964 128.647C227.596 151.441 221.178 171.472 199.389 176.491C190.788 178.477 148.821 161.358 140.164 161.072C122.068 160.444 89.9704 215.289 54.9719 150.128C48.147 137.384 50.4438 120.682 45.9799 106.695C42.0027 94.2428 36.8068 81.3071 39.7558 68.0206C40.961 62.5519 43.5108 57.4057 46.3624 52.5461Z" fill="#009FFD"/>
</svg>
