<svg width="475" height="446" viewBox="0 0 475 446" fill="none" xmlns="http://www.w3.org/2000/svg">
<g clip-path="url(#clip0)">
<path opacity="0.24" d="M245.97 387C288.02 381.75 330.91 380.65 371.67 369C392.588 363.022 412.639 354.349 431.32 343.2C442.74 336.39 453.8 328.47 461.66 317.75C482.87 288.75 475.18 247.51 458.76 215.56C442.34 183.61 418.27 155.45 406.85 121.4C396.2 89.63 395.65 51.55 370.55 29.4C360.68 20.68 348.13 15.68 335.67 11.4C314.17 4.01004 291.51 -1.76996 268.89 0.540041C240.54 3.44004 215.19 18.63 188.64 28.98C162.55 39.12 134.85 44.72 108.68 54.72C82.51 64.72 56.98 80.01 42.68 104.07C26.35 131.48 27.04 165.53 30.26 197.27C33.48 229.01 38.67 261.68 29.84 292.34C22.56 317.59 6.14001 339.82 1.30001 365.65C-4.43999 396.29 9.62 421.65 37.73 435.09C71.19 451.09 107.88 444.69 135 424.36C166.79 400.49 207.17 391.83 245.97 387Z" fill="#009FFD"/>
<path d="M309.55 126.09C310.847 127.219 311.864 128.635 312.52 130.224C313.176 131.814 313.453 133.535 313.33 135.25C313.052 138.685 311.959 142.003 310.14 144.93C307.611 149.347 304.301 153.267 300.37 156.5C299.649 149.116 299.78 141.674 300.76 134.32C301.02 132.32 299.7 127.09 300.58 125.77C302.36 123.13 307.55 124.52 309.55 126.09Z" fill="#F5E0CD"/>
<path d="M304.68 268.23C303.887 269.385 303.367 270.706 303.161 272.093C302.955 273.479 303.067 274.894 303.49 276.23C305.49 281.57 311.67 281.39 315.96 283.93C324.29 288.74 322.79 302.08 315.96 308.84C309.13 315.6 299.26 317.98 290.34 321.5C280.982 325.205 272.064 329.937 263.75 335.61C261.47 337.11 259.27 338.61 257.14 340.24C236.49 355.33 219.68 373.03 192.57 384.57C176.14 391.57 159.97 397.57 148.39 411.2C147.77 411.93 147.16 412.64 146.57 413.35C114.17 451.64 56.14 456.73 18.79 423.25C10.33 415.66 6.37999 408.6 13.39 402.12C37.55 379.82 64.55 364.66 82.18 335.57C91.07 320.93 96.97 304.65 102.18 288.33C106.85 273.58 110.98 258.68 115.02 243.75C119.277 227.887 124.623 212.337 131.02 197.21C142.64 169.89 143.78 176.69 163.02 149.85C165.71 146.12 171.27 155.75 172.77 160.08C177.4 173.86 174.77 196.16 165.93 202.96C162.2 205.79 156.3 222.86 157.49 230.37C157.627 231.362 157.865 232.337 158.2 233.28C158.95 235 160.2 234.96 163.2 233.73C169.77 231.04 175.41 225.06 180.71 219.95C182.99 217.74 185.34 215.62 187.81 213.64C217.68 188.91 257.94 179.06 296.81 175.73C305.47 174.98 314.57 174.61 321.97 180.15C325.052 182.363 327.139 185.7 327.78 189.44C330.12 205.44 303.87 210.03 306.11 224.17C309.843 224.049 313.526 225.055 316.678 227.058C319.831 229.061 322.306 231.967 323.782 235.398C325.258 238.829 325.665 242.626 324.952 246.292C324.238 249.958 322.435 253.324 319.78 255.95C315.21 260.54 308.38 262.45 304.68 268.23Z" fill="#F5E0CD"/>
<path d="M288.92 255.84C285.97 282.09 275.85 306.92 265.84 331.35C265.273 332.833 264.587 334.267 263.79 335.64C263.245 336.578 262.553 337.422 261.74 338.14C260.42 339.218 258.853 339.95 257.18 340.27C254.695 340.733 252.159 340.861 249.64 340.65L193.96 338.07C183.84 337.58 172.11 336.28 166.54 327.8C163.33 322.94 165.46 316.8 165.27 310.99C164.82 297.62 167.81 276.69 168.07 263.32C168.22 254.99 164.22 242.99 158.25 233.32C159 235.04 160.25 235 163.25 233.77C169.82 231.08 175.46 225.1 180.76 219.99C183.04 217.78 185.39 215.66 187.86 213.68C199.17 210.43 210.75 208.19 217.14 205.68C232.22 199.82 245.03 199.26 261.05 201.54C272.22 203.14 281.37 212.11 285.66 222.54C289.95 232.97 290.16 244.63 288.92 255.84Z" fill="url(#paint0_linear)"/>
<path d="M287.7 91.34H190.4C184.457 91.34 179.64 96.1574 179.64 102.1V321.96C179.64 327.903 184.457 332.72 190.4 332.72H287.7C293.643 332.72 298.46 327.903 298.46 321.96V102.1C298.46 96.1574 293.643 91.34 287.7 91.34Z" fill="#009FFD"/>
<path d="M238.554 232.831C234.822 232.831 231.786 235.867 231.786 239.598C231.786 243.33 234.822 246.366 238.554 246.366C242.285 246.366 245.321 243.33 245.321 239.598C245.321 235.867 242.285 232.831 238.554 232.831Z" fill="white"/>
<path d="M275.218 190.335C253.788 174.734 223.252 174.734 201.822 190.335L200 191.664L205.398 199.088C214.812 191.57 227.432 187.381 239.752 187.751C251.22 188.012 262.862 192.101 271.644 199.085L277 191.664L275.218 190.335Z" fill="white"/>
<path d="M264.602 204.932C249.52 193.952 227.52 193.952 212.438 204.932L210.616 206.261L216.024 213.698C221.978 208.711 230.33 205.815 238.391 205.776C238.446 205.776 238.501 205.776 238.558 205.776C246.673 205.776 255.027 208.664 261.025 213.686L266.424 206.261L264.602 204.932Z" fill="white"/>
<path d="M253.986 219.529C245.253 213.171 231.787 213.171 223.054 219.529L221.232 220.858L226.63 228.28C230.054 224.953 235.476 223.572 239.594 223.847C243.074 224.075 247.522 225.55 250.381 228.321L255.808 220.858L253.986 219.529Z" fill="white"/>
<g clip-path="url(#clip1)">
<path d="M263.555 231.77L260.977 227.304L251.97 232.504L246.77 223.498L242.304 226.076L247.505 235.083L238.498 240.283L241.076 244.748L250.083 239.548L255.283 248.555L259.748 245.977L254.548 236.97L263.555 231.77Z" fill="#D75050"/>
</g>
<path d="M287.7 91.34H190.4C184.457 91.34 179.64 96.1574 179.64 102.1V321.96C179.64 327.903 184.457 332.72 190.4 332.72H287.7C293.643 332.72 298.46 327.903 298.46 321.96V102.1C298.46 96.1574 293.643 91.34 287.7 91.34Z" fill="url(#paint1_linear)"/>
<path d="M300.76 248.02C300.76 270.54 300.76 293.063 300.76 315.59C300.76 328.82 293.23 336.38 280.09 336.38C252.09 336.38 224.11 336.38 196.15 336.38C183.07 336.38 175.77 328.94 175.77 315.79C175.77 281.79 175.77 247.773 175.77 213.74C175.77 204.92 175.9 196.1 175.71 187.29C175.58 180.88 174.94 174.49 174.71 168.09C174.65 166.67 175.27 165.24 175.5 163.79C175.66 162.79 176.07 161.57 175.71 160.79C173.16 154.86 175 148.69 174.65 142.66C174.47 139.66 175.65 136.66 175.74 133.66C175.74 131.22 174.56 128.77 174.63 126.34C174.86 119.25 175.21 112.14 175.95 105.08C176.95 95.52 184.82 88.94 194.95 88.91C215.62 88.86 236.28 88.91 256.95 88.91C264.85 88.91 272.74 88.84 280.64 88.91C293.35 88.97 300.76 96.39 300.79 109C300.79 112.6 300.73 116.2 300.79 119.8C301.2 136.62 302.56 153.48 301.79 170.23C301.26 181.23 300.98 192.23 300.86 203.3C300.64 218.09 300.77 233.06 300.76 248.02ZM180.12 211.72C180.12 246.207 180.12 280.69 180.12 315.17C180.12 325.41 186.12 331.5 196.29 331.51C224.163 331.55 252.03 331.55 279.89 331.51C291.02 331.51 296.89 325.58 296.89 314.51C296.89 271.683 296.89 228.853 296.89 186.02C296.89 160.253 296.89 134.477 296.89 108.69C296.89 98.54 290.73 92.42 280.67 92.38C278.23 92.38 275.79 92.45 273.36 92.38C270.74 92.27 269.36 93.38 268.59 95.94C267.3 100.39 265.7 101.63 261.12 101.65C246.147 101.73 231.17 101.75 216.19 101.71C211.08 101.71 209.74 100.64 208.24 95.71C208.054 94.6753 207.473 93.7532 206.621 93.1377C205.769 92.5222 204.711 92.2613 203.67 92.41C200.88 92.5 198.09 92.41 195.31 92.41C186.52 92.5 180.17 98.8 180.16 107.61C180.1 142.277 180.087 176.98 180.12 211.72ZM298.99 292.12L298.87 292.04V317.04H298.99V292.12ZM178.3 310.72V291.31V310.72Z" fill="#009FFD"/>
<path d="M291.34 197.66C288.45 201.96 285.94 206.92 286.41 212.08C286.88 217.24 291.41 222.29 296.56 221.57C299.11 221.21 301.27 219.57 303.25 217.93C305.817 215.803 308.3 213.567 310.7 211.22C312.39 209.671 313.872 207.909 315.11 205.98C316.399 203.773 317.118 201.28 317.202 198.726C317.286 196.171 316.732 193.636 315.59 191.35C313.68 187.63 308.27 182.4 303.69 183.88C299.11 185.36 293.95 193.79 291.34 197.66Z" fill="#F5E0CD"/>
<path d="M291.34 247.78C288.45 252.08 285.94 257.04 286.41 262.2C286.88 267.36 291.41 272.41 296.56 271.69C299.11 271.33 301.27 269.69 303.25 268.05C305.817 265.923 308.3 263.687 310.7 261.34C312.39 259.791 313.872 258.029 315.11 256.1C316.399 253.893 317.118 251.4 317.202 248.846C317.286 246.291 316.732 243.757 315.59 241.47C313.68 237.75 308.27 232.52 303.69 234C299.11 235.48 293.95 243.91 291.34 247.78Z" fill="#F5E0CD"/>
<path d="M291.34 294.39C288.45 298.69 285.94 303.65 286.41 308.81C286.88 313.97 291.41 319.03 296.56 318.3C299.11 317.94 301.27 316.3 303.25 314.67C305.817 312.543 308.3 310.307 310.7 307.96C312.39 306.411 313.872 304.649 315.11 302.72C316.399 300.513 317.118 298.02 317.202 295.466C317.286 292.911 316.732 290.377 315.59 288.09C313.68 284.36 308.27 279.14 303.69 280.61C299.11 282.08 293.95 290.52 291.34 294.39Z" fill="#F5E0CD"/>
</g>
<defs>
<linearGradient id="paint0_linear" x1="148.97" y1="333.96" x2="473.52" y2="77.4" gradientUnits="userSpaceOnUse">
<stop stop-color="#010101" stop-opacity="0"/>
<stop offset="0.95" stop-color="#010101"/>
</linearGradient>
<linearGradient id="paint1_linear" x1="239" y1="115" x2="239.05" y2="332.72" gradientUnits="userSpaceOnUse">
<stop stop-color="#FF0000" stop-opacity="0"/>
<stop offset="0.638472" stop-color="#FF0000" stop-opacity="0.2"/>
<stop offset="1" stop-color="#FF0000" stop-opacity="0.5"/>
</linearGradient>
<clipPath id="clip0">
<rect width="474.6" height="445.54" fill="white"/>
</clipPath>
<clipPath id="clip1">
<rect width="22" height="22" fill="white" transform="translate(243.248 222.554) rotate(15)"/>
</clipPath>
</defs>
</svg>
