<svg width="512" height="512" viewBox="0 0 512 512" fill="none" xmlns="http://www.w3.org/2000/svg">
<g clip-path="url(#clip0)">
<path d="M168.54 138.82C168.54 131.801 164.4 125.746 158.443 122.923V98.415C158.443 91.394 154.301 85.338 148.341 82.515V66.09C148.341 58.625 143.662 52.247 137.089 49.692L130.041 15.86C128.127 6.67 119.924 0 110.537 0C101.15 0 92.947 6.67 91.033 15.86L83.985 49.692C77.412 52.247 72.733 58.625 72.733 66.09V82.515C66.773 85.338 62.631 91.394 62.631 98.415V122.921C56.672 125.744 52.531 131.8 52.531 138.82V218.36C52.531 222.503 55.889 225.86 60.031 225.86C64.173 225.86 67.531 222.503 67.531 218.36V138.82C67.531 137.386 68.698 136.219 70.131 136.219H150.941C152.375 136.219 153.541 137.386 153.541 138.82V434.37H67.53V253.36C67.53 249.217 64.172 245.86 60.03 245.86C55.888 245.86 52.53 249.217 52.53 253.36L52.529 484.297C52.529 499.572 64.957 512 80.233 512H140.842C156.118 512 168.546 499.572 168.546 484.297L168.54 138.82ZM77.63 98.415C77.63 96.98 78.797 95.813 80.232 95.813H140.841C142.276 95.813 143.443 96.98 143.443 98.415V121.22H77.63V98.415ZM87.732 66.09C87.732 64.655 88.899 63.488 90.334 63.488H130.74C132.175 63.488 133.342 64.655 133.342 66.09V80.814H87.732V66.09ZM105.717 18.919C106.19 16.648 108.217 15 110.537 15C112.856 15 114.883 16.648 115.356 18.919L121.516 48.488H99.557L105.717 18.919ZM140.841 497H80.232C73.227 497 67.528 491.302 67.528 484.297V449.37H153.545V484.297C153.545 491.302 147.846 497 140.841 497V497Z" fill="white"/>
<path d="M459.47 201.66C459.47 197.517 456.112 194.16 451.97 194.16C447.828 194.16 444.47 197.517 444.47 201.66V434.37H358.46V138.82C358.46 137.386 359.627 136.219 361.06 136.219H441.87C443.304 136.219 444.47 137.386 444.47 138.82V166.66C444.47 170.803 447.828 174.16 451.97 174.16C456.112 174.16 459.47 170.803 459.47 166.66V138.82C459.47 131.8 455.329 125.744 449.37 122.921V98.415C449.37 91.394 445.228 85.338 439.268 82.515V66.09C439.268 58.625 434.589 52.247 428.016 49.692L420.968 15.86C419.053 6.67 410.851 0 401.463 0C392.075 0 383.873 6.67 381.959 15.86L374.911 49.692C368.338 52.247 363.659 58.625 363.659 66.09V82.515C357.699 85.338 353.557 91.394 353.557 98.415V122.923C347.6 125.747 343.46 131.801 343.46 138.82L343.455 484.297C343.455 499.572 355.883 512 371.159 512H431.768C447.044 512 459.472 499.572 459.472 484.297L459.47 201.66ZM368.557 98.415C368.557 96.98 369.724 95.813 371.159 95.813H431.768C433.203 95.813 434.37 96.98 434.37 98.415V121.22H368.557V98.415ZM378.659 66.09C378.659 64.655 379.826 63.488 381.261 63.488H421.667C423.102 63.488 424.269 64.655 424.269 66.09V80.814H378.66V66.09H378.659ZM396.644 18.919C397.117 16.648 399.144 15 401.463 15C403.783 15 405.81 16.648 406.283 18.919L412.443 48.488H390.484L396.644 18.919ZM431.768 497H371.159C364.154 497 358.455 491.302 358.455 484.297V449.37H444.472V484.297C444.472 491.302 438.773 497 431.768 497Z" fill="white"/>
<path d="M303.907 122.92V98.415C303.907 91.394 299.765 85.338 293.805 82.515V66.09C293.805 58.625 289.126 52.247 282.553 49.692L275.505 15.86C273.59 6.67 265.387 0 256 0C246.613 0 238.41 6.67 236.496 15.86L229.448 49.692C222.875 52.247 218.196 58.625 218.196 66.09V82.515C212.236 85.338 208.094 91.395 208.094 98.415V122.92C202.134 125.742 197.991 131.799 197.991 138.82L197.992 484.297C197.992 499.572 210.42 512 225.696 512H286.305C301.581 512 314.009 499.572 314.009 484.297L314.01 291C314.01 286.857 310.652 283.5 306.51 283.5C302.368 283.5 299.01 286.857 299.01 291V434.37H212.99V138.82C212.99 137.386 214.156 136.219 215.59 136.219H296.41C297.844 136.219 299.01 137.386 299.01 138.82V256C299.01 260.143 302.368 263.5 306.51 263.5C310.652 263.5 314.01 260.143 314.01 256V138.82C314.01 131.799 309.867 125.742 303.907 122.92V122.92ZM223.093 98.415C223.093 96.98 224.26 95.813 225.695 95.813H286.304C287.739 95.813 288.906 96.98 288.906 98.415V121.22H223.093V98.415ZM233.195 66.09C233.195 64.655 234.362 63.488 235.797 63.488H276.203C277.638 63.488 278.805 64.655 278.805 66.09V80.814H233.196V66.09H233.195ZM251.18 18.919C251.653 16.648 253.68 15 256 15C258.32 15 260.347 16.648 260.82 18.919L266.98 48.488H245.021L251.18 18.919ZM286.305 497H225.696C218.691 497 212.992 491.302 212.992 484.297V449.37H299.009V484.297C299.008 491.302 293.31 497 286.305 497Z" fill="white"/>
</g>
<defs>
<clipPath id="clip0">
<rect width="512" height="512" fill="white"/>
</clipPath>
</defs>
</svg>
