<svg width="401" height="509" viewBox="0 0 401 509" fill="none" xmlns="http://www.w3.org/2000/svg">
<path d="M392.941 201.619C388.799 201.619 385.441 204.977 385.441 209.119V468.367C385.441 482.501 373.942 494 359.808 494H330.174C326.032 494 322.674 497.358 322.674 501.5C322.674 505.642 326.032 509 330.174 509H359.808C382.213 509 400.441 490.772 400.441 468.367V209.119C400.441 204.977 397.083 201.619 392.941 201.619V201.619Z" fill="white"/>
<path d="M69.89 177.667H334.957C339.099 177.667 342.457 174.309 342.457 170.167C342.457 166.025 339.099 162.667 334.957 162.667H69.89C65.748 162.667 62.39 166.025 62.39 170.167C62.39 174.309 65.748 177.667 69.89 177.667Z" fill="white"/>
<path d="M69.89 227.367H334.957C339.099 227.367 342.457 224.009 342.457 219.867C342.457 215.725 339.099 212.367 334.957 212.367H69.89C65.748 212.367 62.39 215.725 62.39 219.867C62.39 224.009 65.748 227.367 69.89 227.367Z" fill="white"/>
<path d="M69.89 277.067H334.957C339.099 277.067 342.457 273.709 342.457 269.567C342.457 265.425 339.099 262.067 334.957 262.067H69.89C65.748 262.067 62.39 265.425 62.39 269.567C62.39 273.709 65.748 277.067 69.89 277.067Z" fill="white"/>
<path d="M342.458 327.5C342.458 323.358 339.1 320 334.958 320H161.008C156.866 320 153.508 323.358 153.508 327.5C153.508 331.642 156.866 335 161.008 335H334.958C339.1 335 342.458 331.642 342.458 327.5Z" fill="white"/>
<path d="M373.5 57.791H336.812V26.8C336.812 12.023 324.79 0 310.012 0C295.234 0 283.212 12.022 283.212 26.8V57.791H226.8V26.8C226.8 12.022 214.777 0 200 0C185.223 0 173.2 12.022 173.2 26.8V57.791H116.787V26.8C116.787 12.023 104.765 0 89.987 0C75.21 0 63.187 12.022 63.187 26.8V57.791H26.5C11.888 57.791 0 69.679 0 84.291V121.809C0 125.952 3.358 129.309 7.5 129.309C11.642 129.309 15 125.952 15 121.809V84.291C15 77.95 20.159 72.791 26.5 72.791H63.187V84.7C63.187 99.477 75.209 111.5 89.987 111.5C104.765 111.5 116.787 99.478 116.787 84.7V72.791H173.2V84.7C173.2 99.477 185.222 111.5 200 111.5C214.778 111.5 226.8 99.478 226.8 84.7V72.791H283.213V84.7C283.213 99.477 295.235 111.5 310.013 111.5C324.79 111.5 336.813 99.478 336.813 84.7V72.791H373.5C379.841 72.791 385 77.95 385 84.291V148.5C385 152.643 388.358 158 392.5 158C396.642 158 400 152.643 400 148.5V84.291C400 69.679 388.112 57.791 373.5 57.791ZM101.788 84.7C101.788 91.207 96.495 96.5 89.988 96.5C83.482 96.5 78.188 91.207 78.188 84.7C78.188 68.713 78.188 31.804 78.188 26.8C78.188 20.293 83.481 15 89.988 15C96.495 15 101.788 20.293 101.788 26.8V84.7ZM211.8 84.7C211.8 91.207 206.507 96.5 200 96.5C193.493 96.5 188.2 91.207 188.2 84.7C188.2 68.713 188.2 31.804 188.2 26.8C188.2 20.293 193.493 15 200 15C206.507 15 211.8 20.293 211.8 26.8V84.7ZM321.813 84.7C321.813 91.207 316.52 96.5 310.013 96.5C303.506 96.5 298.213 91.207 298.213 84.7C298.213 68.713 298.213 31.804 298.213 26.8C298.213 20.293 303.506 15 310.013 15C316.519 15 321.813 20.293 321.813 26.8V84.7Z" fill="white"/>
<path d="M332 493.987H26.5C20.159 493.987 15 488.824 15 482.477V153.506C15 149.36 11.642 146 7.5 146C3.358 146 0 149.36 0 153.506V482.477C0 497.102 11.888 509 26.5 509H332V493.987Z" fill="white"/>
</svg>
